HIERARCHY
ROOT Hips
{
	OFFSET -339.306915 540.749023 89.171944
	CHANNELS 6 Xposition Yposition Zposition Zrotation Yrotation Xrotation
	JOINT Spine
	{
		OFFSET 0.000000 2.080078 8.814247
		CHANNELS 6 Xposition Yposition Zposition Zrotation Yrotation Xrotation
		JOINT Spine1
		{
			OFFSET 0.000000 0.000000 8.844139
			CHANNELS 6 Xposition Yposition Zposition Zrotation Yrotation Xrotation
			JOINT Spine2
			{
				OFFSET 0.000000 0.000000 11.682266
				CHANNELS 6 Xposition Yposition Zposition Zrotation Yrotation Xrotation
				JOINT Spine3
				{
					OFFSET 0.000000 0.000000 11.746696
					CHANNELS 6 Xposition Yposition Zposition Zrotation Yrotation Xrotation
					JOINT Neck
					{
						OFFSET 0.000000 0.000000 17.658264
						CHANNELS 6 Xposition Yposition Zposition Zrotation Yrotation Xrotation
						JOINT Neck1
						{
							OFFSET 0.000000 0.000000 5.101517
							CHANNELS 6 Xposition Yposition Zposition Zrotation Yrotation Xrotation
							JOINT Head
							{
								OFFSET 0.000000 0.000000 5.101517
								CHANNELS 6 Xposition Yposition Zposition Zrotation Yrotation Xrotation
								JOINT HeadEnd
								{
									OFFSET 0.000000 0.000000 11.655090
									CHANNELS 6 Xposition Yposition Zposition Zrotation Yrotation Xrotation
									End Site
									{
										OFFSET 0.000000 0.000000 0.100006
									}
								}
							}
						}
					}
					JOINT RightShoulder
					{
						OFFSET -2.625397 0.000000 11.175217
						CHANNELS 6 Xposition Yposition Zposition Zrotation Yrotation Xrotation
						JOINT RightArm
						{
							OFFSET 0.000000 0.000000 10.434708
							CHANNELS 6 Xposition Yposition Zposition Zrotation Yrotation Xrotation
							JOINT RightForeArm
							{
								OFFSET 0.000000 0.000000 29.628418
								CHANNELS 6 Xposition Yposition Zposition Zrotation Yrotation Xrotation
								JOINT RightHand
								{
									OFFSET 0.000000 0.000000 22.857605
									CHANNELS 6 Xposition Yposition Zposition Zrotation Yrotation Xrotation
									JOINT RightHandThumb1
									{
										OFFSET -2.867310 -2.944275 3.959564
										CHANNELS 6 Xposition Yposition Zposition Zrotation Yrotation Xrotation
										JOINT RightHandThumb2
										{
											OFFSET 0.000000 0.000000 3.350403
											CHANNELS 6 Xposition Yposition Zposition Zrotation Yrotation Xrotation
											JOINT RightHandThumb3
											{
												OFFSET 0.000000 0.000000 3.756516
												CHANNELS 6 Xposition Yposition Zposition Zrotation Yrotation Xrotation
												JOINT RightHandThumb4
												{
													OFFSET 0.000000 0.000000 3.147339
													CHANNELS 6 Xposition Yposition Zposition Zrotation Yrotation Xrotation
													End Site
													{
														OFFSET 0.000000 0.000000 0.100006
													}
												}
											}
										}
									}
									JOINT RightHandIndex1
									{
										OFFSET -0.086761 -2.345276 10.030899
										CHANNELS 6 Xposition Yposition Zposition Zrotation Yrotation Xrotation
										JOINT RightHandIndex2
										{
											OFFSET 0.000000 0.000000 4.061096
											CHANNELS 6 Xposition Yposition Zposition Zrotation Yrotation Xrotation
											JOINT RightHandIndex3
											{
												OFFSET 0.000000 0.000000 3.248871
												CHANNELS 6 Xposition Yposition Zposition Zrotation Yrotation Xrotation
												JOINT RightHandIndex4
												{
													OFFSET 0.000000 0.000000 2.639709
													CHANNELS 6 Xposition Yposition Zposition Zrotation Yrotation Xrotation
													End Site
													{
														OFFSET 0.000000 0.000000 0.100006
													}
												}
											}
										}
									}
									JOINT RightHandMiddle1
									{
										OFFSET 0.104095 -0.006775 9.502945
										CHANNELS 6 Xposition Yposition Zposition Zrotation Yrotation Xrotation
										JOINT RightHandMiddle2
										{
											OFFSET 0.000000 0.000000 4.568726
											CHANNELS 6 Xposition Yposition Zposition Zrotation Yrotation Xrotation
											JOINT RightHandMiddle3
											{
												OFFSET 0.000000 0.000000 3.654984
												CHANNELS 6 Xposition Yposition Zposition Zrotation Yrotation Xrotation
												JOINT RightHandMiddle4
												{
													OFFSET 0.000000 0.000000 2.741241
													CHANNELS 6 Xposition Yposition Zposition Zrotation Yrotation Xrotation
													End Site
													{
														OFFSET 0.000000 0.000000 0.100006
													}
												}
											}
										}
									}
									JOINT RightHandRing1
									{
										OFFSET 0.086761 2.267456 8.921707
										CHANNELS 6 Xposition Yposition Zposition Zrotation Yrotation Xrotation
										JOINT RightHandRing2
										{
											OFFSET 0.000000 0.000000 4.061096
											CHANNELS 6 Xposition Yposition Zposition Zrotation Yrotation Xrotation
											JOINT RightHandRing3
											{
												OFFSET 0.000000 0.000000 3.654984
												CHANNELS 6 Xposition Yposition Zposition Zrotation Yrotation Xrotation
												JOINT RightHandRing4
												{
													OFFSET 0.000000 0.000000 2.741241
													CHANNELS 6 Xposition Yposition Zposition Zrotation Yrotation Xrotation
													End Site
													{
														OFFSET 0.000000 0.000000 0.100006
													}
												}
											}
										}
									}
									JOINT RightHandPinky1
									{
										OFFSET -0.173492 4.467224 7.976990
										CHANNELS 6 Xposition Yposition Zposition Zrotation Yrotation Xrotation
										JOINT RightHandPinky2
										{
											OFFSET 0.000000 0.000000 3.350403
											CHANNELS 6 Xposition Yposition Zposition Zrotation Yrotation Xrotation
											JOINT RightHandPinky3
											{
												OFFSET 0.000000 0.000000 2.842758
												CHANNELS 6 Xposition Yposition Zposition Zrotation Yrotation Xrotation
												JOINT RightHandPinky4
												{
													OFFSET 0.000000 0.000000 2.639709
													CHANNELS 6 Xposition Yposition Zposition Zrotation Yrotation Xrotation
													End Site
													{
														OFFSET 0.000000 0.000000 0.100006
													}
												}
											}
										}
									}
									JOINT RightForeArmEnd
									{
										OFFSET 0.000000 0.000000 0.000000
										CHANNELS 6 Xposition Yposition Zposition Zrotation Yrotation Xrotation
										End Site
										{
											OFFSET 0.000000 0.000000 0.100006
										}
									}
								}
								JOINT RightArmEnd
								{
									OFFSET 0.000000 0.000000 0.000000
									CHANNELS 6 Xposition Yposition Zposition Zrotation Yrotation Xrotation
									End Site
									{
										OFFSET 0.000000 0.000000 0.100006
									}
								}
							}
						}
					}
					JOINT LeftShoulder
					{
						OFFSET 2.625397 0.000000 11.175217
						CHANNELS 6 Xposition Yposition Zposition Zrotation Yrotation Xrotation
						JOINT LeftArm
						{
							OFFSET 0.000000 0.000000 10.813629
							CHANNELS 6 Xposition Yposition Zposition Zrotation Yrotation Xrotation
							JOINT LeftForeArm
							{
								OFFSET 0.000000 0.000000 28.724777
								CHANNELS 6 Xposition Yposition Zposition Zrotation Yrotation Xrotation
								JOINT LeftHand
								{
									OFFSET 0.644379 0.328857 25.716171
									CHANNELS 6 Xposition Yposition Zposition Zrotation Yrotation Xrotation
									JOINT LeftHandThumb1
									{
										OFFSET 2.867310 -2.944275 3.959564
										CHANNELS 6 Xposition Yposition Zposition Zrotation Yrotation Xrotation
										JOINT LeftHandThumb2
										{
											OFFSET 0.000000 0.000000 3.350403
											CHANNELS 6 Xposition Yposition Zposition Zrotation Yrotation Xrotation
											JOINT LeftHandThumb3
											{
												OFFSET 0.000000 0.000000 3.756516
												CHANNELS 6 Xposition Yposition Zposition Zrotation Yrotation Xrotation
												JOINT LeftHandThumb4
												{
													OFFSET 0.000000 0.000000 3.100006
													CHANNELS 6 Xposition Yposition Zposition Zrotation Yrotation Xrotation
													End Site
													{
														OFFSET 0.000000 0.000000 0.100006
													}
												}
											}
										}
									}
									JOINT LeftHandIndex1
									{
										OFFSET 0.086761 -2.345276 10.030899
										CHANNELS 6 Xposition Yposition Zposition Zrotation Yrotation Xrotation
										JOINT LeftHandIndex2
										{
											OFFSET 0.000000 0.000000 4.061096
											CHANNELS 6 Xposition Yposition Zposition Zrotation Yrotation Xrotation
											JOINT LeftHandIndex3
											{
												OFFSET 0.000000 0.000000 3.248871
												CHANNELS 6 Xposition Yposition Zposition Zrotation Yrotation Xrotation
												JOINT LeftHandIndex4
												{
													OFFSET 0.000000 0.000000 2.639709
													CHANNELS 6 Xposition Yposition Zposition Zrotation Yrotation Xrotation
													End Site
													{
														OFFSET 0.000000 0.000000 0.100006
													}
												}
											}
										}
									}
									JOINT LeftHandMiddle1
									{
										OFFSET -0.104095 -0.006775 9.502945
										CHANNELS 6 Xposition Yposition Zposition Zrotation Yrotation Xrotation
										JOINT LeftHandMiddle2
										{
											OFFSET 0.000000 0.000000 4.568726
											CHANNELS 6 Xposition Yposition Zposition Zrotation Yrotation Xrotation
											JOINT LeftHandMiddle3
											{
												OFFSET 0.000000 0.000000 3.654984
												CHANNELS 6 Xposition Yposition Zposition Zrotation Yrotation Xrotation
												JOINT LeftHandMiddle4
												{
													OFFSET 0.000000 0.000000 2.741241
													CHANNELS 6 Xposition Yposition Zposition Zrotation Yrotation Xrotation
													End Site
													{
														OFFSET 0.000000 0.000000 0.100006
													}
												}
											}
										}
									}
									JOINT LeftHandRing1
									{
										OFFSET -0.086761 2.267456 8.921707
										CHANNELS 6 Xposition Yposition Zposition Zrotation Yrotation Xrotation
										JOINT LeftHandRing2
										{
											OFFSET 0.000000 0.000000 4.061096
											CHANNELS 6 Xposition Yposition Zposition Zrotation Yrotation Xrotation
											JOINT LeftHandRing3
											{
												OFFSET 0.000000 0.000000 3.654984
												CHANNELS 6 Xposition Yposition Zposition Zrotation Yrotation Xrotation
												JOINT LeftHandRing4
												{
													OFFSET 0.000000 0.000000 2.741241
													CHANNELS 6 Xposition Yposition Zposition Zrotation Yrotation Xrotation
													End Site
													{
														OFFSET 0.000000 0.000000 0.100006
													}
												}
											}
										}
									}
									JOINT LeftHandPinky1
									{
										OFFSET 0.173492 4.467224 7.976990
										CHANNELS 6 Xposition Yposition Zposition Zrotation Yrotation Xrotation
										JOINT LeftHandPinky2
										{
											OFFSET 0.000000 0.000000 3.350403
											CHANNELS 6 Xposition Yposition Zposition Zrotation Yrotation Xrotation
											JOINT LeftHandPinky3
											{
												OFFSET 0.000000 0.000000 2.842758
												CHANNELS 6 Xposition Yposition Zposition Zrotation Yrotation Xrotation
												JOINT LeftHandPinky4
												{
													OFFSET 0.000000 0.000000 2.639709
													CHANNELS 6 Xposition Yposition Zposition Zrotation Yrotation Xrotation
													End Site
													{
														OFFSET 0.000000 0.000000 0.100006
													}
												}
											}
										}
									}
									JOINT LeftForeArmEnd
									{
										OFFSET 0.000000 0.000000 0.000000
										CHANNELS 6 Xposition Yposition Zposition Zrotation Yrotation Xrotation
										End Site
										{
											OFFSET 0.000000 0.000000 0.100006
										}
									}
								}
								JOINT LeftArmEnd
								{
									OFFSET 0.000000 0.000000 0.000000
									CHANNELS 6 Xposition Yposition Zposition Zrotation Yrotation Xrotation
									End Site
									{
										OFFSET 0.000000 0.000000 0.100006
									}
								}
							}
						}
					}
				}
			}
		}
	}
	JOINT RightUpLeg
	{
		OFFSET -11.289948 0.000000 0.000000
		CHANNELS 6 Xposition Yposition Zposition Zrotation Yrotation Xrotation
		JOINT RightLeg
		{
			OFFSET 0.000000 0.000000 -38.200329
			CHANNELS 6 Xposition Yposition Zposition Zrotation Yrotation Xrotation
			JOINT RightFoot
			{
				OFFSET 0.000000 0.000000 -39.900856
				CHANNELS 6 Xposition Yposition Zposition Zrotation Yrotation Xrotation
				JOINT RightToeBase
				{
					OFFSET 0.000000 -15.261658 0.000001
					CHANNELS 6 Xposition Yposition Zposition Zrotation Yrotation Xrotation
					JOINT RightToeBaseEnd
					{
						OFFSET 0.000000 -7.370728 0.000001
						CHANNELS 6 Xposition Yposition Zposition Zrotation Yrotation Xrotation
						End Site
						{
							OFFSET 0.000000 0.000000 0.100000
						}
					}
				}
				JOINT RightLegEnd
				{
					OFFSET 0.000000 0.000000 0.000000
					CHANNELS 6 Xposition Yposition Zposition Zrotation Yrotation Xrotation
					End Site
					{
						OFFSET 0.000000 0.000000 0.100000
					}
				}
			}
			JOINT RightUpLegEnd
			{
				OFFSET 0.000000 0.000000 0.000000
				CHANNELS 6 Xposition Yposition Zposition Zrotation Yrotation Xrotation
				End Site
				{
					OFFSET 0.000000 0.000000 0.099998
				}
			}
		}
	}
	JOINT LeftUpLeg
	{
		OFFSET 11.315674 0.000000 0.000000
		CHANNELS 6 Xposition Yposition Zposition Zrotation Yrotation Xrotation
		JOINT LeftLeg
		{
			OFFSET 0.000000 0.000000 -38.200329
			CHANNELS 6 Xposition Yposition Zposition Zrotation Yrotation Xrotation
			JOINT LeftFoot
			{
				OFFSET 0.000000 0.000000 -39.900856
				CHANNELS 6 Xposition Yposition Zposition Zrotation Yrotation Xrotation
				JOINT LeftToeBase
				{
					OFFSET 0.000000 -15.261658 0.000001
					CHANNELS 6 Xposition Yposition Zposition Zrotation Yrotation Xrotation
					JOINT LeftToeBaseEnd
					{
						OFFSET 0.000000 -7.539978 0.000001
						CHANNELS 6 Xposition Yposition Zposition Zrotation Yrotation Xrotation
						End Site
						{
							OFFSET 0.000000 0.000000 0.100000
						}
					}
				}
				JOINT LeftLegEnd
				{
					OFFSET 0.000000 0.000000 0.000000
					CHANNELS 6 Xposition Yposition Zposition Zrotation Yrotation Xrotation
					End Site
					{
						OFFSET 0.000000 0.000000 0.100000
					}
				}
			}
			JOINT LeftUpLegEnd
			{
				OFFSET 0.000000 0.000000 0.000000
				CHANNELS 6 Xposition Yposition Zposition Zrotation Yrotation Xrotation
				End Site
				{
					OFFSET 0.000000 0.000000 0.099998
				}
			}
		}
	}
}
MOTION
Frames: 2
Frame Time: 0.016667
17.302521 -77.135132 86.673912 1.571109 1.519913 -10.388089 -0.000034 2.080054 8.814246 -0.811175 0.027568 7.710255 0.000005 -0.000008 8.844147 -0.595819 -0.718876 3.567259 -0.000038 0.000009 11.682276 -5.018557 -3.334950 6.860502 -0.000005 0.000022 11.746716 -2.469514 -4.932217 6.104628 0.000000 0.000008 17.658264 2.034955 6.861242 0.438653 0.000012 0.000032 5.101514 -0.128649 1.570665 -5.264998 0.000000 0.000031 5.101557 0.500569 0.563138 -11.834460 0.000000 -0.000001 11.655076 0.000000 -0.000000 0.000000 -2.625399 -0.000030 11.175229 8.418923 -87.108859 0.121317 0.000019 -0.000029 10.434719 -37.562649 -58.879762 39.975977 0.000002 -0.000015 29.628462 16.194199 0.158595 21.684386 0.000082 -0.000038 22.857586 27.173942 11.705597 -6.369291 -2.867337 -2.944305 3.959549 32.175720 -25.238930 40.247914 0.000000 -0.000015 3.350403 -30.377481 10.849473 -51.440812 0.000000 -0.000008 3.756504 -20.135457 10.543005 -35.080582 0.000013 -0.000007 3.147357 0.000000 0.000002 -0.000001 -0.086761 -2.345254 10.030899 -4.904636 -74.498635 -4.244638 -0.000008 0.000013 4.061108 4.724280 -52.528195 -10.564535 -0.000015 0.000004 3.248856 5.224281 -52.528185 -10.564541 0.000006 -0.000004 2.639728 0.000000 -0.000001 -0.000001 0.104118 -0.006748 9.502930 -20.336482 -72.186357 15.509398 -0.000004 0.000012 4.568705 1.322671 -51.500197 -3.777726 -0.000020 0.000022 3.654991 1.822677 -51.500210 -3.777737 -0.000008 0.000001 2.741246 0.000000 -0.000001 -0.000000 0.086777 2.267472 8.921680 -49.639800 -71.124665 50.276667 -0.000013 0.000010 4.061089 -1.514123 -54.361404 4.893814 -0.000010 0.000026 3.654964 -2.513383 -54.361585 4.893173 -0.000005 0.000053 2.741264 -0.000000 0.000003 -0.000001 -0.173458 4.467228 7.976948 -56.981792 -62.837911 65.344768 -0.000019 0.000015 3.350403 -5.308708 -52.597770 14.727266 -0.000038 -0.000002 2.842751 -7.308730 -52.597750 14.727264 0.000006 -0.000011 2.639694 -0.000000 -0.000001 -0.000001 0.000002 -0.000003 -0.000017 0.000000 -0.000003 -0.000000 -0.000004 -0.000009 0.000015 0.000001 -0.000000 0.000000 2.625443 0.000008 11.175247 -14.299468 81.135605 -0.106354 0.000008 0.000007 10.813641 71.271535 45.131073 62.006609 0.000000 -0.000038 28.724739 -15.422707 0.819148 34.865780 0.644361 0.328816 25.716164 2.394834 6.155297 -14.387167 2.867304 -2.944290 3.959579 -31.678018 22.563416 43.884553 0.000015 0.000015 3.350433 24.496598 -11.026063 -42.059960 -0.000019 -0.000015 3.756508 16.165748 -9.630643 -28.648624 0.000008 0.000014 3.100029 -0.000002 0.000000 -0.000001 0.086761 -2.345263 10.030914 30.601051 54.818248 24.668818 0.000008 -0.000015 4.061081 2.092856 40.792731 6.965977 0.000010 0.000000 3.248878 2.592874 40.792437 6.965969 0.000002 -0.000010 2.639718 0.000001 0.000001 0.000000 -0.104080 -0.006765 9.502930 20.583561 54.317175 18.652811 0.000006 0.000028 4.568737 0.392069 39.552676 2.480685 -0.000026 -0.000010 3.654972 0.892070 39.552642 2.480691 0.000010 0.000006 2.741245 -0.000001 0.000001 -0.000000 -0.086763 2.267456 8.921711 7.587957 58.028836 12.468477 0.000017 0.000017 4.061108 -0.113780 40.628742 -3.008013 0.000007 -0.000010 3.655029 -1.113795 40.628779 -3.008037 -0.000042 0.000021 2.741263 -0.000002 -0.000001 -0.000000 0.173485 4.467199 7.977011 -8.461824 58.081026 3.542072 0.000004 -0.000026 3.350418 -1.127099 38.577257 -8.919443 -0.000011 0.000018 2.842735 -3.127096 38.577257 -8.919433 -0.000011 0.000003 2.639735 -0.000000 0.000001 0.000000 0.000000 -0.000016 0.000013 0.000003 -0.000001 -0.000003 0.000002 0.000009 0.000011 -0.000002 -0.000003 -0.000000 -11.289971 -0.000021 -0.000002 9.661991 -5.173686 -1.234711 0.000008 0.000041 -38.200310 0.116697 -0.067955 30.216736 0.000009 0.000010 -39.900848 -5.965429 5.221770 10.400411 0.000005 -15.261662 0.000012 0.166332 0.076278 -20.739600 0.000005 -7.370658 -0.000001 -0.000001 -0.000001 0.000001 -0.000008 0.000059 0.000001 0.000000 0.000000 -0.000002 -0.000014 0.000008 -0.000011 -0.000001 0.000000 0.000001 11.315630 -0.000016 0.000005 1.795071 -10.197583 -0.423647 -0.000013 0.000088 -38.200279 1.061255 -0.756351 35.473260 -0.000037 0.000001 -39.900856 10.257760 8.970927 14.251652 0.000007 -15.261649 0.000003 -1.115292 -1.108302 -24.755360 0.000007 -7.539907 0.000005 -0.000002 -0.000000 -0.000000 -0.000002 -0.000003 0.000002 0.000001 0.000001 -0.000002 -0.000023 0.000004 0.000002 -0.000000 0.000000 -0.000001 
16.878937 -77.097168 86.533562 2.027085 1.614970 -11.250170 -0.000007 2.080106 8.814247 -0.820612 -0.209367 8.278180 0.000003 -0.000004 8.844154 -0.635170 -0.876247 3.728031 0.000010 0.000039 11.682264 -4.676847 -3.338279 7.074667 -0.000006 0.000023 11.746693 -2.300021 -4.846585 6.213338 0.000000 0.000001 17.658245 2.144485 7.481721 0.564678 0.000011 0.000006 5.101526 -0.239042 1.548013 -5.282821 0.000009 0.000011 5.101536 0.543187 0.382365 -11.640991 -0.000001 0.000000 11.655073 -0.000000 0.000000 -0.000000 -2.625401 0.000002 11.175189 9.455377 -87.118749 0.146897 -0.000024 -0.000031 10.434715 -34.039122 -58.210431 39.116200 -0.000002 -0.000008 29.628416 16.956059 0.152456 22.651163 0.000000 -0.000057 22.857574 28.039048 13.058034 -4.758994 -2.867330 -2.944260 3.959579 32.376562 -26.012285 39.209732 -0.000008 0.000000 3.350414 -32.043160 10.626172 -54.110162 0.000008 -0.000031 3.756538 -21.288513 10.722220 -36.931905 -0.000015 -0.000012 3.147346 0.000003 0.000001 0.000003 -0.086758 -2.345313 10.030901 -8.231612 -79.424247 -1.746357 -0.000008 -0.000013 4.061111 5.893007 -55.951704 -12.004127 -0.000011 0.000006 3.248882 6.392994 -55.951725 -12.004105 0.000000 -0.000005 2.639713 0.000000 0.000000 -0.000001 0.104084 -0.006762 9.502949 -27.880762 -76.416273 22.557347 -0.000027 0.000029 4.568724 1.705695 -54.772752 -4.256284 0.000008 -0.000027 3.655003 2.205709 -54.772793 -4.256287 -0.000003 -0.000007 2.741265 0.000000 -0.000001 0.000002 0.086755 2.267445 8.921722 -61.442422 -73.546657 61.592884 0.000019 0.000027 4.061090 -1.998344 -57.355906 5.478674 -0.000025 0.000027 3.654959 -2.998333 -57.355844 5.478670 0.000006 -0.000006 2.741242 -0.000000 -0.000001 0.000001 -0.173504 4.467197 7.976974 -64.714601 -64.754141 72.725313 -0.000008 0.000021 3.350403 -6.525960 -55.188113 16.233502 -0.000019 -0.000027 2.842766 -8.525973 -55.188092 16.233502 -0.000004 -0.000006 2.639706 0.000001 -0.000001 0.000000 -0.000008 -0.000009 0.000003 0.000001 -0.000005 0.000000 0.000010 0.000000 -0.000000 -0.000001 0.000001 0.000001 2.625393 0.000008 11.175224 -14.221095 81.046690 -0.103234 0.000053 0.000012 10.813641 70.670383 45.366052 61.834317 -0.000006 -0.000008 28.724716 -16.676042 0.971632 34.335952 0.644367 0.328815 25.716190 1.027114 5.644827 -14.075260 2.867323 -2.944290 3.959564 -31.703143 22.752562 43.624347 -0.000023 0.000000 3.350418 24.916887 -11.044830 -42.730189 0.000004 -0.000008 3.756523 16.445238 -9.710288 -29.105154 0.000011 0.000002 3.100011 -0.000001 -0.000001 -0.000002 0.086784 -2.345253 10.030914 32.025657 56.111377 26.521058 -0.000019 0.000010 4.061131 2.276472 41.898443 7.243900 0.000006 -0.000010 3.248875 2.776464 41.898457 7.243907 -0.000013 0.000013 2.639714 -0.000001 -0.000000 -0.000001 -0.104080 -0.006778 9.502930 21.612431 55.701487 20.161279 0.000020 -0.000020 4.568691 0.454254 40.629821 2.577234 0.000014 -0.000003 3.655024 0.954244 40.629865 2.577238 0.000010 -0.000016 2.741251 0.000002 0.000002 -0.000002 -0.086746 2.267458 8.921700 8.195214 59.517824 13.476603 0.000013 0.000009 4.061104 -0.187119 41.660490 -3.119487 0.000004 -0.000024 3.654982 -1.187109 41.660520 -3.119475 -0.000011 -0.000005 2.741279 0.000001 -0.000001 -0.000002 0.173523 4.467199 7.977009 -8.532229 59.516206 3.811430 -0.000011 -0.000050 3.350410 -1.311816 39.476560 -9.212784 0.000008 0.000027 2.842758 -3.311814 39.476612 -9.212793 -0.000005 0.000005 2.639703 -0.000001 0.000003 0.000001 -0.000004 -0.000026 0.000025 0.000004 0.000000 0.000001 -0.000017 -0.000004 0.000022 0.000001 -0.000000 -0.000001 -11.289958 -0.000004 0.000010 8.785428 -5.555131 -0.571355 -0.000004 0.000051 -38.200348 0.146240 -0.086677 30.657068 -0.000037 0.000042 -39.900852 -5.790223 5.552245 10.043593 -0.000009 -15.261645 -0.000011 0.139430 0.063634 -20.566176 -0.000005 -7.370664 0.000000 -0.000000 0.000000 -0.000001 0.000002 0.000058 -0.000011 0.000001 -0.000001 -0.000001 -0.000024 -0.000003 -0.000012 0.000000 0.000000 -0.000002 11.315645 0.000066 0.000008 2.096073 -10.635335 -1.033120 -0.000020 0.000081 -38.200253 0.992766 -0.761032 37.494272 -0.000016 0.000023 -39.900848 10.489392 9.002725 14.882197 -0.000001 -15.261648 0.000021 -0.933903 -1.062832 -25.624063 0.000002 -7.539981 0.000000 0.000000 0.000000 -0.000000 -0.000004 -0.000072 0.000004 0.000002 0.000000 -0.000002 -0.000003 -0.000001 -0.000001 0.000000 -0.000000 0.000001 
